<?xml version="1.0" encoding="UTF-8" standalone="no"?><!-- Generator: Gravit.io --><svg xmlns="http://www.w3.org/2000/svg" xmlns:xlink="http://www.w3.org/1999/xlink" style="isolation:isolate" viewBox="0 0 2000 2000" width="2000pt" height="2000pt"><defs><clipPath id="_clipPath_YUVumkxqEGQoYxZks8EGnlCJlizFpMiL"><rect width="2000" height="2000"/></clipPath></defs><g clip-path="url(#_clipPath_YUVumkxqEGQoYxZks8EGnlCJlizFpMiL)"><rect width="2000" height="2000" style="fill:rgb(0,0,0)" fill-opacity="0"/><path d=" M 960.262 1202.639 L 960.262 1525.57 L 960.262 1525.57 L 960.262 1525.57 L 842.329 1525.57 L 842.329 1605.047 L 1157.671 1605.047 L 1157.671 1525.57 L 1039.738 1525.57 L 1039.738 1202.537 L 1039.738 1202.537 L 1039.738 1202.537 L 1311.497 930.779 L 1311.497 474.43 L 1460.195 474.43 L 1460.195 669.48 L 1390.973 738.701 L 1390.973 851.302 L 1539.671 702.604 L 1539.671 474.43 L 1539.671 474.43 L 1539.671 394.953 L 1539.671 394.953 L 1539.671 394.953 L 1232.02 394.953 L 1232.02 394.953 L 1232.02 897.756 L 1000.051 1129.725 L 767.98 897.654 L 767.98 394.953 L 767.98 394.953 L 460.329 394.953 L 460.329 394.953 L 460.329 394.953 L 460.329 474.43 L 460.329 474.43 L 460.329 702.604 L 609.027 851.302 L 609.027 738.701 L 539.805 669.48 L 539.805 474.43 L 688.503 474.43 L 688.503 930.779 L 960.262 1202.639 Z " fill="rgb(255,255,255)"/><rect x="728.242" y="1684.523" width="543.517" height="79.477" transform="matrix(1,0,0,1,0,0)" fill="rgb(255,255,255)"/><rect x="688.503" y="236" width="622.993" height="79.477" transform="matrix(1,0,0,1,0,0)" fill="rgb(255,255,255)"/></g></svg>